<?xml version="1.0" encoding="utf-8" ?>
<svg baseProfile="tiny" height="1000px" version="1.2" viewBox="0 0 1000 1000" width="1000px" xmlns="http://www.w3.org/2000/svg" xmlns:ev="http://www.w3.org/2001/xml-events" xmlns:xlink="http://www.w3.org/1999/xlink"><defs /><rect fill="#f3faff" height="1000" width="1000" x="0" y="0" /><path d="M 407.33,807.13 A 34,91 0 0,0 419.88,778.49" fill="none" stroke="#0f4f86" stroke-opacity="0.3" stroke-width="0.3" /><path d="M 372.64,460.84 A 43,22 0 0,1 287.03,457.23" fill="none" stroke="#0f4f86" stroke-opacity="0.3" stroke-width="0.3" /><polyline fill="none" points="385,191 955,276 160,459 313,21" stroke="#0f4f86" stroke-opacity="0.3" stroke-width="0.3" /><line stroke="#0f4f86" stroke-opacity="0.4" stroke-width="0.3" x1="747" x2="595" y1="856" y2="714" /><path d="M 689.54,573.42 A 79,99 0 0,1 667.14,572.46" fill="none" stroke="#0f4f86" stroke-opacity="0.3" stroke-width="0.3" /><path d="M 927.88,549.04 A 83,22 0 0,0 900.60,586.93" fill="none" stroke="#0f4f86" stroke-opacity="0.3" stroke-width="0.3" /><path d="M 301.34,356.20 A 79,33 0 0,0 349.60,378.93" fill="none" stroke="#0f4f86" stroke-opacity="0.3" stroke-width="0.3" /><polyline fill="none" points="955,454 427,508 775,942 34,205 80,931" stroke="#0f4f86" stroke-opacity="0.3" stroke-width="0.3" /><polyline fill="none" points="389,565 105,771 821,476 702,401" stroke="#0f4f86" stroke-opacity="0.3" stroke-width="0.3" /><polyline fill="none" points="201,957 995,269 862,815 270,455" stroke="#0f4f86" stroke-opacity="0.3" stroke-width="0.3" /><polyline fill="none" points="251,701 295,724 719,748 337,878 52,791" stroke="#0f4f86" stroke-opacity="0.3" stroke-width="0.3" /><polyline fill="none" points="763,187 379,492 40,156" stroke="#0f4f86" stroke-opacity="0.3" stroke-width="0.3" /><path d="M 824.54,36.27 A 90,28 0 0,1 874.27,43.78" fill="none" stroke="#0f4f86" stroke-opacity="0.3" stroke-width="0.3" /><path d="M 144.74,445.71 A 27,54 0 0,1 160.51,527.83" fill="none" stroke="#0f4f86" stroke-opacity="0.3" stroke-width="0.3" /><path d="M 21.42,-37.35 A 26,92 0 0,1 46.27,-62.29" fill="none" stroke="#0f4f86" stroke-opacity="0.3" stroke-width="0.3" /><path d="M 369.65,525.08 A 56,63 0 0,0 454.87,603.75" fill="none" stroke="#0f4f86" stroke-opacity="0.3" stroke-width="0.3" /><path d="M 618.57,920.05 A 97,22 0 0,0 705.73,947.66" fill="none" stroke="#0f4f86" stroke-opacity="0.3" stroke-width="0.3" /><polyline fill="none" points="794,392 206,14 857,553 891,460 690,574" stroke="#0f4f86" stroke-opacity="0.3" stroke-width="0.3" /><path d="M 221.77,537.38 A 23,42 0 0,0 256.20,533.18" fill="none" stroke="#0f4f86" stroke-opacity="0.3" stroke-width="0.3" /><line stroke="#0f4f86" stroke-opacity="0.4" stroke-width="0.3" x1="159" x2="145" y1="838" y2="880" /><polyline fill="none" points="681,556 573,952 645,795 27,619" stroke="#0f4f86" stroke-opacity="0.3" stroke-width="0.3" /><polyline fill="none" points="330,639 505,347 472,230 189,224" stroke="#0f4f86" stroke-opacity="0.3" stroke-width="0.3" /><line stroke="#0f4f86" stroke-opacity="0.4" stroke-width="0.3" x1="376" x2="296" y1="282" y2="197" /><line stroke="#0f4f86" stroke-opacity="0.4" stroke-width="0.3" x1="744" x2="902" y1="258" y2="255" /><path d="M 641.19,386.48 A 56,70 0 0,0 604.52,361.12" fill="none" stroke="#0f4f86" stroke-opacity="0.3" stroke-width="0.3" /><polyline fill="none" points="691,112 829,496 441,563" stroke="#0f4f86" stroke-opacity="0.3" stroke-width="0.3" /><polyline fill="none" points="385,386 112,612 624,951 80,698 112,1" stroke="#0f4f86" stroke-opacity="0.3" stroke-width="0.3" /><polyline fill="none" points="854,996 735,224 384,402 637,129" stroke="#0f4f86" stroke-opacity="0.3" stroke-width="0.3" /><line stroke="#0f4f86" stroke-opacity="0.4" stroke-width="0.3" x1="683" x2="642" y1="729" y2="726" /><path d="M 842.29,512.77 A 94,75 0 0,1 759.56,393.25" fill="none" stroke="#0f4f86" stroke-opacity="0.3" stroke-width="0.3" /><line stroke="#0f4f86" stroke-opacity="0.4" stroke-width="0.3" x1="883" x2="880" y1="609" y2="803" /><path d="M 786.73,214.88 A 92,78 0 0,1 775.61,218.16" fill="none" stroke="#0f4f86" stroke-opacity="0.3" stroke-width="0.3" /><path d="M 881.04,432.93 A 86,38 0 0,0 862.47,424.96" fill="none" stroke="#0f4f86" stroke-opacity="0.3" stroke-width="0.3" /><line stroke="#0f4f86" stroke-opacity="0.4" stroke-width="0.3" x1="935" x2="773" y1="639" y2="776" /><line stroke="#0f4f86" stroke-opacity="0.4" stroke-width="0.3" x1="778" x2="728" y1="987" y2="1084" /><path d="M 259.62,841.82 A 35,79 0 0,1 263.97,684.13" fill="none" stroke="#0f4f86" stroke-opacity="0.3" stroke-width="0.3" /><line stroke="#0f4f86" stroke-opacity="0.4" stroke-width="0.3" x1="36" x2="-156" y1="159" y2="191" /><path d="M 719.33,797.73 A 99,22 0 0,0 750.37,822.92" fill="none" stroke="#0f4f86" stroke-opacity="0.3" stroke-width="0.3" /><path d="M 597.20,917.23 A 55,57 0 0,1 677.21,952.59" fill="none" stroke="#0f4f86" stroke-opacity="0.3" stroke-width="0.3" /><polyline fill="none" points="98,152 860,913 895,877" stroke="#0f4f86" stroke-opacity="0.3" stroke-width="0.3" /><polyline fill="none" points="821,162 719,956 680,995 160,579" stroke="#0f4f86" stroke-opacity="0.3" stroke-width="0.3" /><line stroke="#0f4f86" stroke-opacity="0.4" stroke-width="0.3" x1="397" x2="500" y1="276" y2="459" /><path d="M 237.25,437.20 A 52,67 0 0,0 185.05,466.00" fill="none" stroke="#0f4f86" stroke-opacity="0.3" stroke-width="0.3" /><polyline fill="none" points="669,37 229,364 562,437 775,282" stroke="#0f4f86" stroke-opacity="0.3" stroke-width="0.3" /><path d="M 201.10,234.97 A 49,47 0 0,1 264.46,303.87" fill="none" stroke="#0f4f86" stroke-opacity="0.3" stroke-width="0.3" /><line stroke="#0f4f86" stroke-opacity="0.4" stroke-width="0.3" x1="815" x2="618" y1="658" y2="492" /><line stroke="#0f4f86" stroke-opacity="0.4" stroke-width="0.3" x1="511" x2="482" y1="16" y2="35" /><polyline fill="none" points="45,372 517,98 891,744" stroke="#0f4f86" stroke-opacity="0.3" stroke-width="0.3" /><line stroke="#0f4f86" stroke-opacity="0.4" stroke-width="0.3" x1="279" x2="380" y1="348" y2="328" /><path d="M 146.67,657.96 A 82,51 0 0,1 179.85,702.07" fill="none" stroke="#0f4f86" stroke-opacity="0.3" stroke-width="0.3" /><polyline fill="none" points="734,565 569,322 871,685" stroke="#0f4f86" stroke-opacity="0.3" stroke-width="0.3" /><polyline fill="none" points="853,662 961,638 154,489 385,985 784,103" stroke="#0f4f86" stroke-opacity="0.3" stroke-width="0.3" /><line stroke="#0f4f86" stroke-opacity="0.4" stroke-width="0.3" x1="392" x2="437" y1="810" y2="785" /><path d="M 506.20,629.84 A 45,69 0 0,1 455.90,742.73" fill="none" stroke="#0f4f86" stroke-opacity="0.3" stroke-width="0.3" /><path d="M 786.37,3.45 A 64,39 0 0,1 888.00,35.23" fill="none" stroke="#0f4f86" stroke-opacity="0.3" stroke-width="0.3" /><polyline fill="none" points="470,142 91,353 833,799 726,958 853,50" stroke="#0f4f86" stroke-opacity="0.3" stroke-width="0.3" /><line stroke="#0f4f86" stroke-opacity="0.4" stroke-width="0.3" x1="697" x2="686" y1="574" y2="498" /><polyline fill="none" points="569,341 304,691 681,837 782,53" stroke="#0f4f86" stroke-opacity="0.3" stroke-width="0.3" /><path d="M 439.36,683.34 A 27,72 0 0,0 443.71,540.02" fill="none" stroke="#0f4f86" stroke-opacity="0.3" stroke-width="0.3" /><polyline fill="none" points="991,883 349,46 866,822" stroke="#0f4f86" stroke-opacity="0.3" stroke-width="0.3" /><line stroke="#0f4f86" stroke-opacity="0.4" stroke-width="0.3" x1="369" x2="274" y1="635" y2="592" /><path d="M 579.96,133.22 A 82,38 0 0,0 574.77,124.19" fill="none" stroke="#0f4f86" stroke-opacity="0.3" stroke-width="0.3" /><polyline fill="none" points="829,790 126,392 907,640" stroke="#0f4f86" stroke-opacity="0.3" stroke-width="0.3" /><polyline fill="none" points="512,750 801,95 637,117 559,600" stroke="#0f4f86" stroke-opacity="0.3" stroke-width="0.3" /><line stroke="#0f4f86" stroke-opacity="0.4" stroke-width="0.3" x1="884" x2="955" y1="896" y2="884" /><path d="M 691.99,405.32 A 88,41 0 0,1 705.15,405.01" fill="none" stroke="#0f4f86" stroke-opacity="0.3" stroke-width="0.3" /><path d="M 1052.67,116.98 A 76,48 0 0,0 1044.78,121.81" fill="none" stroke="#0f4f86" stroke-opacity="0.3" stroke-width="0.3" /><polyline fill="none" points="957,452 203,911 217,473 431,340" stroke="#0f4f86" stroke-opacity="0.3" stroke-width="0.3" /><path d="M 650.87,278.89 A 42,29 0 0,1 578.22,306.13" fill="none" stroke="#0f4f86" stroke-opacity="0.3" stroke-width="0.3" /><path d="M 867.00,760.50 A 38,77 0 0,0 909.94,684.65" fill="none" stroke="#0f4f86" stroke-opacity="0.3" stroke-width="0.3" /><path d="M 234.47,457.42 A 51,43 0 0,0 306.69,486.32" fill="none" stroke="#0f4f86" stroke-opacity="0.3" stroke-width="0.3" /><line stroke="#0f4f86" stroke-opacity="0.4" stroke-width="0.3" x1="956" x2="856" y1="690" y2="757" /><path d="M 591.86,505.58 A 59,93 0 0,1 543.25,493.35" fill="none" stroke="#0f4f86" stroke-opacity="0.3" stroke-width="0.3" /><path d="M 260.41,914.80 A 54,27 0 0,1 292.96,870.30" fill="none" stroke="#0f4f86" stroke-opacity="0.3" stroke-width="0.3" /><polyline fill="none" points="616,902 195,825 500,625 492,74 412,375" stroke="#0f4f86" stroke-opacity="0.3" stroke-width="0.3" /><line stroke="#0f4f86" stroke-opacity="0.4" stroke-width="0.3" x1="276" x2="239" y1="760" y2="953" /><line stroke="#0f4f86" stroke-opacity="0.4" stroke-width="0.3" x1="456" x2="447" y1="919" y2="945" /><line stroke="#0f4f86" stroke-opacity="0.4" stroke-width="0.3" x1="98" x2="-7" y1="547" y2="498" /><path d="M 138.48,748.38 A 56,31 0 0,0 207.78,705.80" fill="none" stroke="#0f4f86" stroke-opacity="0.3" stroke-width="0.3" /><path d="M 836.01,798.75 A 36,81 0 0,0 859.04,721.43" fill="none" stroke="#0f4f86" stroke-opacity="0.3" stroke-width="0.3" /></svg>