<?xml version="1.0" encoding="utf-8" ?>
<svg baseProfile="tiny" height="1000px" version="1.2" viewBox="0 0 1000 1000" width="1000px" xmlns="http://www.w3.org/2000/svg" xmlns:ev="http://www.w3.org/2001/xml-events" xmlns:xlink="http://www.w3.org/1999/xlink"><defs /><rect fill="#ffefd6" height="1000" width="1000" x="0" y="0" /><path d="M 437.05,319.95 A 190.74,190.74 0 0,0 690.60,507.44" fill="none" stroke="#ffb100" stroke-opacity="0.3798" stroke-width="0.8947" /><path d="M 562.24,174.01 A 331.88,331.88 0 0,1 691.42,771.11" fill="none" stroke="#015e7b" stroke-opacity="0.298" stroke-width="0.8059" /><path d="M 483.74,377.20 A 123.87,123.87 0 0,0 592.92,581.92" fill="none" stroke="#ffb100" stroke-opacity="0.3485" stroke-width="0.9791" /><path d="M 141.87,641.12 A 384.93,384.93 0 0,1 271.38,190.32" fill="none" stroke="#015e7b" stroke-opacity="0.3586" stroke-width="1.1097" /><path d="M 437.84,116.02 A 388.98,388.98 0 0,1 628.00,867.31" fill="none" stroke="#ffb100" stroke-opacity="0.3637" stroke-width="0.8243" /><path d="M 539.48,904.48 A 406.40,406.40 0 1,1 821.39,251.27" fill="none" stroke="#015e7b" stroke-opacity="0.3084" stroke-width="0.8585" /><path d="M 275.27,508.92 A 224.90,224.90 0 0,1 657.29,339.25" fill="none" stroke="#ffb100" stroke-opacity="0.3876" stroke-width="1.016" /><path d="M 173.52,475.83 A 327.37,327.37 0 0,0 777.03,325.57" fill="none" stroke="#015e7b" stroke-opacity="0.2793" stroke-width="0.8489" /><path d="M 695.71,281.66 A 293.21,293.21 0 0,1 659.90,745.78" fill="none" stroke="#ffb100" stroke-opacity="0.2582" stroke-width="0.8621" /><path d="M 504.06,80.93 A 419.09,419.09 0 0,1 727.54,851.94" fill="none" stroke="#015e7b" stroke-opacity="0.3363" stroke-width="0.8057" /><path d="M 375.75,851.19 A 372.52,372.52 0 0,1 339.90,163.64" fill="none" stroke="#ffb100" stroke-opacity="0.267" stroke-width="0.874" /><path d="M 476.14,706.83 A 208.21,208.21 0 1,0 626.03,334.27" fill="none" stroke="#015e7b" stroke-opacity="0.4106" stroke-width="0.6499" /><path d="M 515.26,322.97 A 177.69,177.69 0 0,1 668.22,557.22" fill="none" stroke="#ffb100" stroke-opacity="0.2531" stroke-width="0.9125" /><path d="M 766.43,920.40 A 497.72,497.72 0 1,1 612.52,15.17" fill="none" stroke="#015e7b" stroke-opacity="0.3486" stroke-width="0.9341" /><path d="M 704.74,818.00 A 378.21,378.21 0 0,1 191.03,718.13" fill="none" stroke="#ffb100" stroke-opacity="0.3279" stroke-width="1.1459" /><path d="M 587.25,933.29 A 441.99,441.99 0 0,0 96.14,320.41" fill="none" stroke="#015e7b" stroke-opacity="0.2893" stroke-width="0.6262" /><path d="M 371.13,859.59 A 381.98,381.98 0 0,0 317.09,164.66" fill="none" stroke="#ffb100" stroke-opacity="0.201" stroke-width="0.9828" /><path d="M 920.82,659.46 A 450.02,450.02 0 0,1 511.79,949.87" fill="none" stroke="#015e7b" stroke-opacity="0.2997" stroke-width="0.7445" /><path d="M 296.86,805.23 A 366.65,366.65 0 0,0 538.37,135.36" fill="none" stroke="#ffb100" stroke-opacity="0.2601" stroke-width="1.1309" /><path d="M 289.27,553.77 A 217.48,217.48 0 0,1 463.94,285.53" fill="none" stroke="#015e7b" stroke-opacity="0.4136" stroke-width="0.8309" /><path d="M 431.38,653.82 A 168.43,168.43 0 0,1 410.27,357.46" fill="none" stroke="#ffb100" stroke-opacity="0.2147" stroke-width="0.8871" /><path d="M 278.29,470.35 A 223.68,223.68 0 0,1 721.57,469.38" fill="none" stroke="#015e7b" stroke-opacity="0.4471" stroke-width="1.1432" /><path d="M 581.02,797.16 A 308.00,308.00 0 0,1 194.56,460.35" fill="none" stroke="#ffb100" stroke-opacity="0.274" stroke-width="0.9381" /><path d="M 447.75,264.92 A 240.82,240.82 0 0,1 652.72,686.19" fill="none" stroke="#015e7b" stroke-opacity="0.3828" stroke-width="0.6966" /><path d="M 102.10,208.23 A 493.41,493.41 0 1,1 651.59,969.54" fill="none" stroke="#ffb100" stroke-opacity="0.2164" stroke-width="0.6032" /><path d="M 636.28,382.78 A 179.76,179.76 0 1,0 320.54,489.54" fill="none" stroke="#015e7b" stroke-opacity="0.2742" stroke-width="1.1566" /><path d="M 135.73,331.36 A 401.41,401.41 0 0,1 891.40,410.90" fill="none" stroke="#ffb100" stroke-opacity="0.3274" stroke-width="0.8501" /><path d="M 484.48,922.67 A 422.95,422.95 0 0,1 179.71,223.77" fill="none" stroke="#015e7b" stroke-opacity="0.2716" stroke-width="0.7839" /><path d="M 314.23,184.71 A 365.95,365.95 0 0,1 778.46,262.55" fill="none" stroke="#ffb100" stroke-opacity="0.3256" stroke-width="0.842" /><path d="M 643.43,810.33 A 341.88,341.88 0 0,0 263.20,746.59" fill="none" stroke="#015e7b" stroke-opacity="0.2212" stroke-width="0.9496" /><path d="M 686.64,67.53 A 471.03,471.03 0 0,0 776.76,881.15" fill="none" stroke="#ffb100" stroke-opacity="0.2393" stroke-width="0.8032" /><path d="M 330.19,566.44 A 182.35,182.35 0 1,1 673.15,442.81" fill="none" stroke="#015e7b" stroke-opacity="0.4275" stroke-width="0.6772" /><path d="M 726.21,627.67 A 259.75,259.75 0 0,0 392.88,736.63" fill="none" stroke="#ffb100" stroke-opacity="0.4173" stroke-width="0.8599" /><path d="M 251.87,508.84 A 248.29,248.29 0 0,1 708.68,365.47" fill="none" stroke="#015e7b" stroke-opacity="0.402" stroke-width="0.6045" /><path d="M 184.47,393.97 A 332.87,332.87 0 1,1 633.68,804.85" fill="none" stroke="#ffb100" stroke-opacity="0.2721" stroke-width="0.7584" /><path d="M 377.41,186.13 A 336.96,336.96 0 1,0 449.75,833.19" fill="none" stroke="#015e7b" stroke-opacity="0.208" stroke-width="1.0469" /><path d="M 187.53,553.70 A 317.05,317.05 0 0,0 402.89,198.18" fill="none" stroke="#ffb100" stroke-opacity="0.2145" stroke-width="0.9528" /><path d="M 503.45,31.81 A 468.20,468.20 0 0,1 716.48,915.15" fill="none" stroke="#015e7b" stroke-opacity="0.375" stroke-width="0.9967" /><path d="M 792.97,593.36 A 307.49,307.49 0 1,1 265.45,301.17" fill="none" stroke="#ffb100" stroke-opacity="0.286" stroke-width="1.0077" /><path d="M 821.86,613.18 A 341.18,341.18 0 1,0 256.91,260.60" fill="none" stroke="#015e7b" stroke-opacity="0.4114" stroke-width="0.7121" /><path d="M 331.06,596.66 A 194.64,194.64 0 1,1 671.45,592.13" fill="none" stroke="#ffb100" stroke-opacity="0.371" stroke-width="0.9179" /><path d="M 290.56,289.97 A 296.60,296.60 0 0,0 781.78,407.39" fill="none" stroke="#015e7b" stroke-opacity="0.2118" stroke-width="0.745" /><path d="M 849.16,738.99 A 423.12,423.12 0 0,0 189.17,787.07" fill="none" stroke="#ffb100" stroke-opacity="0.3023" stroke-width="0.8235" /><path d="M 333.26,762.86 A 311.28,311.28 0 1,1 765.84,338.06" fill="none" stroke="#015e7b" stroke-opacity="0.2014" stroke-width="0.8909" /><path d="M 638.44,489.83 A 138.82,138.82 0 0,0 423.72,615.98" fill="none" stroke="#ffb100" stroke-opacity="0.3303" stroke-width="0.8876" /><path d="M 368.37,811.99 A 338.62,338.62 0 0,0 167.39,436.46" fill="none" stroke="#015e7b" stroke-opacity="0.3108" stroke-width="1.0294" /><path d="M 87.96,759.60 A 487.00,487.00 0 0,0 272.63,69.34" fill="none" stroke="#ffb100" stroke-opacity="0.3709" stroke-width="1.168" /><path d="M 715.58,369.25 A 252.13,252.13 0 0,0 698.71,655.19" fill="none" stroke="#015e7b" stroke-opacity="0.4483" stroke-width="0.7419" /><path d="M 399.91,600.98 A 142.18,142.18 0 0,1 414.97,386.05" fill="none" stroke="#ffb100" stroke-opacity="0.3574" stroke-width="0.8406" /><path d="M 486.30,94.04 A 406.19,406.19 0 0,0 809.88,762.61" fill="none" stroke="#015e7b" stroke-opacity="0.2914" stroke-width="0.9203" /><path d="M 614.08,684.90 A 217.26,217.26 0 0,0 348.71,344.08" fill="none" stroke="#ffb100" stroke-opacity="0.2984" stroke-width="1.1028" /><path d="M 331.51,262.99 A 290.80,290.80 0 1,1 418.42,779.12" fill="none" stroke="#015e7b" stroke-opacity="0.2115" stroke-width="1.0266" /><path d="M 877.73,430.51 A 384.06,384.06 0 1,1 156.23,328.75" fill="none" stroke="#ffb100" stroke-opacity="0.4436" stroke-width="1.0051" /><path d="M 460.00,378.52 A 127.89,127.89 0 0,1 605.40,572.45" fill="none" stroke="#015e7b" stroke-opacity="0.435" stroke-width="1.0996" /><path d="M 692.17,221.22 A 338.59,338.59 0 0,1 802.00,653.12" fill="none" stroke="#ffb100" stroke-opacity="0.3349" stroke-width="0.6483" /><path d="M 292.18,407.97 A 227.29,227.29 0 0,0 695.09,383.39" fill="none" stroke="#015e7b" stroke-opacity="0.2909" stroke-width="0.924" /><path d="M 200.79,363.53 A 328.86,328.86 0 0,0 689.10,230.95" fill="none" stroke="#ffb100" stroke-opacity="0.2616" stroke-width="0.6465" /><path d="M 730.97,313.94 A 296.59,296.59 0 0,0 763.40,636.33" fill="none" stroke="#015e7b" stroke-opacity="0.4371" stroke-width="0.9336" /><path d="M 207.65,498.97 A 292.36,292.36 0 0,1 357.54,244.70" fill="none" stroke="#ffb100" stroke-opacity="0.3823" stroke-width="0.6566" /><path d="M 415.03,195.41 A 316.22,316.22 0 1,1 377.02,791.32" fill="none" stroke="#015e7b" stroke-opacity="0.2067" stroke-width="1.1521" /></svg>