<?xml version="1.0" encoding="utf-8" ?>
<svg baseProfile="tiny" height="1000px" version="1.2" viewBox="0 0 1000 1000" width="1000px" xmlns="http://www.w3.org/2000/svg" xmlns:ev="http://www.w3.org/2001/xml-events" xmlns:xlink="http://www.w3.org/1999/xlink"><defs /><rect fill="#ffefd6" height="1000" width="1000" x="0" y="0" /><path d="M 776.05,595.20 A 292,292 0 0,0 609.02,770.88" fill="none" stroke="#c88e00" stroke-opacity="0.35" stroke-width="0.4" /><path d="M 277.36,487.37 A 223,223 0 0,0 463.11,280.07" fill="none" stroke="#c88e00" stroke-opacity="0.35" stroke-width="0.4" /><path d="M 813.27,862.36 A 479,479 0 0,1 398.82,968.19" fill="none" stroke="#c88e00" stroke-opacity="0.35" stroke-width="0.4" /><path d="M 250.19,778.33 A 374,374 0 0,1 159.64,344.97" fill="none" stroke="#c88e00" stroke-opacity="0.35" stroke-width="0.4" /><path d="M 184.39,431.29 A 323,323 0 0,1 324.65,228.74" fill="none" stroke="#c88e00" stroke-opacity="0.35" stroke-width="0.4" /><path d="M 139.89,352.88 A 389,389 0 0,1 464.58,112.62" fill="none" stroke="#c88e00" stroke-opacity="0.35" stroke-width="0.4" /><path d="M 670.10,242.03 A 309,309 0 0,1 805.81,455.72" fill="none" stroke="#c88e00" stroke-opacity="0.35" stroke-width="0.4" /><path d="M 365.46,212.97 A 317,317 0 0,1 782.73,356.64" fill="none" stroke="#c88e00" stroke-opacity="0.35" stroke-width="0.4" /><path d="M 616.66,436.14 A 133,133 0 0,0 569.47,613.41" fill="none" stroke="#c88e00" stroke-opacity="0.35" stroke-width="0.4" /><path d="M 807.57,751.02 A 397,397 0 0,0 565.42,891.57" fill="none" stroke="#c88e00" stroke-opacity="0.35" stroke-width="0.4" /><path d="M 236.38,441.63 A 270,270 0 0,1 490.36,230.17" fill="none" stroke="#c88e00" stroke-opacity="0.35" stroke-width="0.4" /><path d="M 646.77,298.86 A 249,249 0 0,1 742.32,557.28" fill="none" stroke="#c88e00" stroke-opacity="0.35" stroke-width="0.4" /><path d="M 522.49,694.71 A 196,196 0 0,0 355.39,632.30" fill="none" stroke="#c88e00" stroke-opacity="0.35" stroke-width="0.4" /><path d="M 774.57,845.10 A 441,441 0 0,1 508.77,940.91" fill="none" stroke="#c88e00" stroke-opacity="0.35" stroke-width="0.4" /><path d="M 219.89,395.40 A 299,299 0 0,1 587.23,214.01" fill="none" stroke="#c88e00" stroke-opacity="0.35" stroke-width="0.4" /><path d="M 460.51,26.64 A 475,475 0 0,0 973.16,458.25" fill="none" stroke="#c88e00" stroke-opacity="0.35" stroke-width="0.4" /><path d="M 626.99,501.61 A 127,127 0 0,0 502.20,626.98" fill="none" stroke="#c88e00" stroke-opacity="0.35" stroke-width="0.4" /><path d="M 46.72,525.54 A 454,454 0 0,0 226.54,137.60" fill="none" stroke="#c88e00" stroke-opacity="0.35" stroke-width="0.4" /><path d="M 307.76,532.70 A 195,195 0 0,1 382.87,344.10" fill="none" stroke="#c88e00" stroke-opacity="0.35" stroke-width="0.4" /><path d="M 367.62,531.18 A 136,136 0 0,1 430.63,383.02" fill="none" stroke="#c88e00" stroke-opacity="0.35" stroke-width="0.4" /><path d="M 351.05,482.31 A 150,150 0 0,1 390.26,397.74" fill="none" stroke="#c88e00" stroke-opacity="0.35" stroke-width="0.4" /><path d="M 372.74,446.62 A 138,138 0 0,0 473.99,364.47" fill="none" stroke="#c88e00" stroke-opacity="0.35" stroke-width="0.4" /><path d="M 391.04,654.43 A 189,189 0 0,0 344.57,392.48" fill="none" stroke="#c88e00" stroke-opacity="0.35" stroke-width="0.4" /><path d="M 766.79,233.63 A 377,377 0 0,1 784.79,747.03" fill="none" stroke="#c88e00" stroke-opacity="0.35" stroke-width="0.4" /><path d="M 794.84,253.98 A 384,384 0 0,1 883.93,507.56" fill="none" stroke="#c88e00" stroke-opacity="0.35" stroke-width="0.4" /><path d="M 870.86,686.24 A 415,415 0 0,1 599.27,902.95" fill="none" stroke="#c88e00" stroke-opacity="0.35" stroke-width="0.4" /><path d="M 218.63,365.19 A 312,312 0 0,0 370.77,216.02" fill="none" stroke="#c88e00" stroke-opacity="0.35" stroke-width="0.4" /><path d="M 668.97,876.85 A 413,413 0 0,1 144.32,709.91" fill="none" stroke="#c88e00" stroke-opacity="0.35" stroke-width="0.4" /><path d="M 570.82,634.50 A 152,152 0 0,1 378.96,591.95" fill="none" stroke="#c88e00" stroke-opacity="0.35" stroke-width="0.4" /><path d="M 947.56,535.91 A 449,449 0 0,0 612.97,934.56" fill="none" stroke="#c88e00" stroke-opacity="0.35" stroke-width="0.4" /><path d="M 161.62,399.45 A 353,353 0 0,0 318.92,196.98" fill="none" stroke="#c88e00" stroke-opacity="0.35" stroke-width="0.4" /><path d="M 63.47,479.66 A 437,437 0 0,1 166.54,217.56" fill="none" stroke="#c88e00" stroke-opacity="0.35" stroke-width="0.4" /><path d="M 272.06,664.33 A 281,281 0 0,0 332.29,274.53" fill="none" stroke="#c88e00" stroke-opacity="0.35" stroke-width="0.4" /><path d="M 303.60,664.21 A 256,256 0 0,0 250.94,440.79" fill="none" stroke="#c88e00" stroke-opacity="0.35" stroke-width="0.4" /><path d="M 659.38,655.97 A 223,223 0 0,0 477.86,721.90" fill="none" stroke="#c88e00" stroke-opacity="0.35" stroke-width="0.4" /><path d="M 320.78,887.57 A 427,427 0 0,0 73.56,478.14" fill="none" stroke="#c88e00" stroke-opacity="0.35" stroke-width="0.4" /><path d="M 151.75,568.88 A 355,355 0 0,1 171.55,365.29" fill="none" stroke="#c88e00" stroke-opacity="0.35" stroke-width="0.4" /><path d="M 415.34,835.48 A 346,346 0 0,1 156.41,540.80" fill="none" stroke="#c88e00" stroke-opacity="0.35" stroke-width="0.4" /><path d="M 177.16,442.04 A 328,328 0 0,1 449.29,175.94" fill="none" stroke="#c88e00" stroke-opacity="0.35" stroke-width="0.4" /><path d="M 483.95,154.37 A 346,346 0 0,0 805.69,337.92" fill="none" stroke="#c88e00" stroke-opacity="0.35" stroke-width="0.4" /><path d="M 720.25,349.08 A 267,267 0 0,0 766.57,484.83" fill="none" stroke="#c88e00" stroke-opacity="0.35" stroke-width="0.4" /><path d="M 474.67,824.01 A 325,325 0 0,0 187.67,589.85" fill="none" stroke="#c88e00" stroke-opacity="0.35" stroke-width="0.4" /><path d="M 202.62,468.88 A 299,299 0 0,0 333.63,251.56" fill="none" stroke="#c88e00" stroke-opacity="0.35" stroke-width="0.4" /><path d="M 667.84,200.87 A 343,343 0 0,1 819.97,376.42" fill="none" stroke="#c88e00" stroke-opacity="0.35" stroke-width="0.4" /><path d="M 550.52,609.95 A 121,121 0 0,1 408.01,578.60" fill="none" stroke="#c88e00" stroke-opacity="0.35" stroke-width="0.4" /><path d="M 432.32,312.86 A 199,199 0 0,1 603.26,329.89" fill="none" stroke="#c88e00" stroke-opacity="0.35" stroke-width="0.4" /><path d="M 332.19,927.22 A 459,459 0 0,0 121.59,759.78" fill="none" stroke="#c88e00" stroke-opacity="0.35" stroke-width="0.4" /><path d="M 557.39,584.33 A 102,102 0 0,0 471.28,597.87" fill="none" stroke="#c88e00" stroke-opacity="0.35" stroke-width="0.4" /><path d="M 792.71,179.57 A 434,434 0 0,1 841.72,767.55" fill="none" stroke="#c88e00" stroke-opacity="0.35" stroke-width="0.4" /><path d="M 664.36,412.92 A 186,186 0 0,1 594.90,659.97" fill="none" stroke="#c88e00" stroke-opacity="0.35" stroke-width="0.4" /></svg>