<?xml version="1.0" encoding="UTF-8"?> <svg xmlns="http://www.w3.org/2000/svg" xmlns:xlink="http://www.w3.org/1999/xlink" width="331px" height="64px" viewBox="0 0 331 64"><!-- Generator: Sketch 52.4 (67378) - http://www.bohemiancoding.com/sketch --><title>logo</title><desc>Created with Sketch.</desc><g id="Welcome" stroke="none" stroke-width="1" fill="none" fill-rule="evenodd"><g id="01-home" transform="translate(-40.000000, -25.000000)"><g id="logo" transform="translate(40.000000, 25.000000)"><circle id="Oval" fill="#FF3300" cx="316.5" cy="14.5" r="14.5"></circle><path d="M317.90303,10.19375 L320.50303,18.80625 L322,18.80625 L322,21 L315.775758,21 L315.775758,18.80625 L317.430303,18.80625 L316.8,16.6125 L313.490909,16.6125 L312.781818,18.80625 L314.436364,18.80625 L314.436364,21 L309,21 L309,18.80625 L310.575758,18.80625 L313.018182,10.19375 L311.363636,10.19375 L311.363636,8 L319.636364,8 L319.636364,10.19375 L317.90303,10.19375 Z M315.30303,10.68125 L314.2,14.58125 L316.406061,14.58125 L315.30303,10.68125 Z" id="Shape" fill="#FDFFFF" fill-rule="nonzero"></path><path d="M319.715867,16.8586957 L319.715867,15.4891304 L327,15.4891304 C327,17.0108696 326.690037,18.3804348 326.147601,19.5978261 C325.605166,20.8152174 324.830258,21.8043478 323.900369,22.5652174 C322.97048,23.326087 321.885609,23.9347826 320.645756,24.3913043 C319.405904,24.7717391 318.088561,25 316.693727,25 C315.143911,25 313.749077,24.7717391 312.431734,24.2391304 C311.114391,23.7065217 309.95203,23.0217391 309.02214,22.0326087 C308.01476,21.0434783 307.317343,19.9782609 306.774908,18.6847826 C306.232472,17.3913043 306,16.0217391 306,14.5 C306,13.0543478 306.232472,11.6847826 306.774908,10.3152174 C307.317343,9.02173913 308.01476,7.88043478 308.944649,6.9673913 C309.874539,5.97826087 310.95941,5.29347826 312.276753,4.76086957 C313.594096,4.22826087 314.911439,4 316.383764,4 C318.01107,4 319.483395,4.30434783 320.95572,4.98913043 C322.350554,5.67391304 323.512915,6.58695652 324.442804,7.80434783 L324.520295,7.80434783 L324.520295,4.30434783 L325.915129,4.30434783 L325.915129,11 L324.520295,11 C324.287823,9.93478261 323.745387,9.02173913 322.97048,8.18478261 C322.195572,7.34782609 321.265683,6.66304348 320.103321,6.20652174 C318.940959,5.75 317.778598,5.52173913 316.538745,5.52173913 C314.911439,5.52173913 313.361624,5.90217391 312.04428,6.66304348 C310.726937,7.42391304 309.642066,8.48913043 308.944649,9.85869565 C308.169742,11.2282609 307.859779,12.75 307.859779,14.5 C307.859779,15.7934783 308.092251,17.0108696 308.479705,18.076087 C308.944649,19.2173913 309.564576,20.1304348 310.339483,20.9673913 C311.191882,21.8043478 312.121771,22.4130435 313.206642,22.8695652 C314.291513,23.326087 315.531365,23.5543478 316.848708,23.5543478 C317.778598,23.5543478 318.708487,23.4021739 319.638376,23.173913 C320.568266,22.9456522 321.498155,22.5652174 322.273063,22.0326087 C323.125461,21.5 323.745387,20.8152174 324.365314,19.9782609 C324.907749,19.1413043 325.295203,18.076087 325.372694,16.9347826 L319.715867,16.9347826 L319.715867,16.8586957 Z" id="Path" fill="#FDFFFF"></path><path d="M25.9474747,7.24375 L33.6242424,31.6791667 L38,31.6791667 L38,38 L19.959596,38 L19.959596,31.6791667 L24.7191919,31.6791667 L22.9535354,25.3583333 L13.3575758,25.3583333 L11.3616162,31.6791667 L16.2747475,31.6791667 L16.2747475,38 L0,38 L0,31.6791667 L4.52929293,31.6791667 L11.6686869,7.24375 L6.83232323,7.24375 L6.83232323,1 L30.9373737,1 L30.9373737,7.32083333 L25.9474747,7.32083333 L25.9474747,7.24375 Z M18.2707071,8.78541667 L14.969697,19.9625 L21.4181818,19.9625 L18.2707071,8.78541667 Z" id="Shape" fill="#FFFFFF" fill-rule="nonzero"></path><polygon id="Path" fill="#FFFFFF" points="55 32.0645833 55 38 39 38 39 32.0645833 43.0193237 32.0645833 43.0193237 6.93541667 39 6.93541667 39 1 51.2898551 1 51.2898551 32.0645833 55 32.0645833"></polygon><polygon id="Path" fill="#FFFFFF" points="99 32.2537313 99 38 83 38 83 32.2537313 86.942029 32.2537313 86.942029 18.8208955 83 18.8208955 83 13 95.1352657 13 95.1352657 32.2537313"></polygon><path d="M127.191646,22.2920354 L127.191646,32.3215339 L131,32.3215339 L131,38 L119.041769,38 L119.041769,22.8820059 C119.041769,21.7020649 118.889435,20.8908555 118.5086,20.3746313 C118.127764,19.8584071 117.518428,19.5634218 116.68059,19.5634218 C115.157248,19.5634218 113.55774,20.079646 111.958231,21.1858407 L111.958231,32.3215339 L115.918919,32.3215339 L115.918919,38 L100,38 L100,32.3215339 L103.884521,32.3215339 L103.884521,19.0471976 L100,19.0471976 L100,13.2949853 L111.958231,13.2949853 L111.958231,15.6548673 C114.395577,13.8849558 116.909091,13 119.422604,13 C121.936118,13 123.916462,13.8112094 125.211302,15.359882 C126.506143,16.8348083 127.191646,19.1946903 127.191646,22.2920354 Z" id="Path" fill="#FFFFFF"></path><path d="M157,27.6342857 L138.638418,27.6342857 C138.858757,29.5657143 139.446328,31.0514286 140.621469,32.1657143 C141.723164,33.28 143.19209,33.8 144.954802,33.8 C146.937853,33.8 148.774011,32.8342857 150.683616,30.8285714 L156.779661,32.8342857 C155.457627,34.84 153.768362,36.4 151.785311,37.44 C149.80226,38.48 147.451977,39 144.734463,39 C142.016949,39 139.59322,38.48 137.536723,37.44 C135.480226,36.4 133.864407,34.9142857 132.689266,33.0571429 C131.514124,31.2 131,28.9714286 131,26.3714286 C131,23.8457143 131.587571,21.5428571 132.762712,19.5371429 C133.937853,17.4571429 135.553672,15.8971429 137.610169,14.7085714 C139.666667,13.52 141.870056,13 144.220339,13 C146.79096,13 149.067797,13.5942857 150.977401,14.7828571 C152.887006,15.9714286 154.355932,17.68 155.384181,19.9085714 C156.485876,22.1371429 157,24.7371429 157,27.6342857 Z M143.853107,18.2742857 C142.457627,18.2742857 141.355932,18.72 140.474576,19.5371429 C139.59322,20.3542857 139.079096,21.6171429 138.858757,23.3257143 L149.141243,23.3257143 C148.920904,21.84 148.333333,20.6514286 147.378531,19.6857143 C146.350282,18.72 145.175141,18.2742857 143.853107,18.2742857 Z" id="Shape" fill="#FFFFFF" fill-rule="nonzero"></path><path d="M187.904968,24.4755839 L187.904968,22.2462845 L200,22.2462845 C200,24.7728238 199.546436,27.0764331 198.639309,29.0828025 C197.732181,31.089172 196.447084,32.7239915 194.859611,34.0615711 C193.272138,35.3991507 191.457883,36.3651805 189.416847,37.0339703 C187.37581,37.7027601 185.183585,38 182.840173,38 C180.345572,38 177.926566,37.5541401 175.734341,36.7367304 C173.542117,35.9193206 171.652268,34.656051 169.989201,33.0955414 C168.401728,31.5350318 167.116631,29.6029724 166.285097,27.522293 C165.453564,25.3673036 165,23.0636943 165,20.611465 C165,18.1592357 165.453564,15.8556263 166.285097,13.7006369 C167.116631,11.5456476 168.326134,9.68789809 169.913607,8.05307856 C171.50108,6.492569 173.315335,5.22929936 175.431965,4.33757962 C177.548596,3.44585987 179.816415,3 182.235421,3 C184.956803,3 187.451404,3.52016985 189.794816,4.63481953 C192.138229,5.74946921 194.028078,7.30997877 195.539957,9.24203822 L195.615551,9.24203822 L195.615551,3.59447983 L197.958963,3.59447983 L197.958963,14.6666667 L195.691145,14.6666667 C195.237581,12.9575372 194.406048,11.3227176 193.045356,9.985138 C191.760259,8.57324841 190.172786,7.45859873 188.282937,6.71549894 C186.393089,5.89808917 184.427646,5.52653928 182.386609,5.52653928 C179.589633,5.52653928 177.170626,6.19532909 174.902808,7.45859873 C172.710583,8.72186837 170.971922,10.5053079 169.762419,12.8089172 C168.552916,15.1125265 167.87257,17.6390658 167.87257,20.537155 C167.87257,22.6921444 168.25054,24.6985138 168.930886,26.5562633 C169.686825,28.4140127 170.669546,30.0488323 172.105832,31.3864119 C173.466523,32.7239915 175.053996,33.8386412 176.868251,34.507431 C178.682505,35.2505308 180.723542,35.6220807 182.840173,35.6220807 C184.352052,35.6220807 185.939525,35.3991507 187.451404,34.9532909 C189.038877,34.507431 190.475162,33.9129512 191.835853,33.0212314 C193.196544,32.1295117 194.330454,31.014862 195.237581,29.5286624 C196.144708,28.1167728 196.74946,26.4076433 196.900648,24.4755839 L187.904968,24.4755839 Z" id="Path" fill="#FFFFFF"></path><path d="M201,37 L201,34.7725912 L205.46281,34.7725912 L205.46281,15.6168752 L201,15.6168752 L201,13.3894664 L208.066116,13.3894664 L208.066116,19.1807293 L208.140496,19.1807293 C208.735537,17.7700371 209.479339,16.5078387 210.520661,15.6168752 C211.561983,14.7259117 212.752066,13.9834421 214.239669,13.5379603 C215.652893,13.0924785 217.214876,12.9439846 219,13.0182316 L219,15.4683813 C216.842975,15.3941343 215.057851,15.6168752 213.570248,16.062357 C212.082645,16.5078387 210.966942,17.1018144 210.22314,17.918531 C209.404959,18.7352476 208.884298,19.7004581 208.586777,20.8884095 C208.289256,22.0021139 208.140496,23.4128061 208.140496,24.9719923 L208.140496,34.7725912 L212.975207,34.7725912 L212.975207,37 L201,37 Z" id="Path" fill="#FFFFFF"></path><path d="M219,25.5744048 C219,23.2678571 219.529968,21.110119 220.589905,19.1755952 C221.649842,17.2410714 223.088328,15.7529762 224.905363,14.6369048 C226.722397,13.5208333 228.766562,13 230.962145,13 C233.233438,13 235.277603,13.5208333 237.094637,14.6369048 C238.911672,15.7529762 240.350158,17.2410714 241.410095,19.1011905 C242.470032,21.0357143 243,23.1190476 243,25.5 C243,27.8065476 242.470032,29.889881 241.410095,31.8244048 C240.350158,33.7589286 238.911672,35.2470238 237.094637,36.3630952 C235.277603,37.4791667 233.233438,38 230.962145,38 C228.690852,38 226.646688,37.4791667 224.829653,36.3630952 C223.012618,35.2470238 221.574132,33.7589286 220.514196,31.8244048 C219.529968,29.9642857 219,27.8065476 219,25.5744048 Z M221.649842,25.5744048 C221.649842,27.5089286 222.028391,29.2202381 222.861199,30.7827381 C223.694006,32.3452381 224.753943,33.5357143 226.192429,34.4285714 C227.555205,35.3214286 229.14511,35.7678571 230.886435,35.7678571 C232.62776,35.7678571 234.217666,35.3214286 235.656151,34.4285714 C237.094637,33.5357143 238.154574,32.3452381 238.987382,30.7827381 C239.820189,29.2202381 240.198738,27.5089286 240.198738,25.5744048 C240.198738,23.7142857 239.820189,21.9285714 238.987382,20.3660714 C238.154574,18.8035714 237.094637,17.5386905 235.656151,16.7202381 C234.217666,15.827381 232.62776,15.3809524 230.886435,15.3809524 C229.599369,15.3809524 228.388013,15.6041667 227.252366,16.125 C226.116719,16.6458333 225.132492,17.3154762 224.299685,18.2827381 C223.466877,19.25 222.785489,20.2916667 222.33123,21.5565476 C221.876972,22.7470238 221.649842,24.0863095 221.649842,25.5744048 Z" id="Shape" fill="#FFFFFF" fill-rule="nonzero"></path><path d="M262.388571,37.7018634 L262.388571,34.2732919 C259.491429,36.7329193 256.371429,38 253.102857,38 C251.32,38 249.908571,37.4782609 248.794286,36.4347826 C247.68,35.3913043 247.16,33.9751553 247.16,32.1863354 L247.16,16.2360248 L243,16.2360248 L243,14 L249.76,14 L249.76,31.515528 C249.76,34.2732919 251.022857,35.689441 253.622857,35.689441 C255.034286,35.689441 256.52,35.3167702 258.08,34.5714286 C259.64,33.826087 261.051429,32.7826087 262.388571,31.4409938 L262.388571,16.2360248 L258.228571,16.2360248 L258.228571,14 L264.988571,14 L264.988571,35.4658385 L269,35.4658385 L269,37.7018634 L262.388571,37.7018634 Z" id="Path" fill="#FFFFFF"></path><path d="M273.521505,45.8172043 L273.521505,15.7096774 L269.311828,15.7096774 L269.311828,13.4516129 L276.25,13.4516129 L276.25,18.4946237 L276.327957,18.4946237 C276.951613,17.3655914 277.731183,16.3870968 278.744624,15.5591398 C279.680108,14.7311828 280.849462,14.1290323 282.018817,13.6774194 C283.188172,13.2258065 284.591398,13 285.916667,13 C287.63172,13 289.268817,13.3010753 290.75,13.9032258 C292.231183,14.5053763 293.478495,15.4086022 294.569892,16.4623656 C295.66129,17.5913978 296.518817,18.8709677 297.064516,20.3763441 C297.688172,21.8817204 298,23.5376344 298,25.344086 C298,27.7526882 297.454301,29.9354839 296.44086,31.8924731 C295.427419,33.8494624 293.946237,35.2795699 292.075269,36.4086022 C290.204301,37.5376344 288.099462,37.9892473 285.760753,37.9892473 C283.655914,37.9892473 281.784946,37.5376344 280.147849,36.5591398 C278.510753,35.655914 277.263441,34.2258065 276.327957,32.4946237 L276.25,32.4946237 L276.25,45.7419355 L280.771505,45.7419355 L280.771505,48 L269,48 L269,45.7419355 L273.521505,45.7419355 L273.521505,45.8172043 Z M276.172043,25.4946237 C276.172043,27.4516129 276.561828,29.2580645 277.419355,30.7634409 C278.276882,32.344086 279.36828,33.5483871 280.849462,34.3763441 C282.330645,35.2043011 284.045699,35.655914 285.916667,35.655914 C287.787634,35.655914 289.424731,35.2043011 290.905914,34.3763441 C292.387097,33.5483871 293.478495,32.344086 294.336022,30.7634409 C295.115591,29.1827957 295.583333,27.4516129 295.583333,25.4193548 C295.583333,23.4623656 295.193548,21.7311828 294.336022,20.2258065 C293.478495,18.6451613 292.30914,17.4408602 290.827957,16.6129032 C289.346774,15.7849462 287.63172,15.3333333 285.760753,15.3333333 C283.967742,15.3333333 282.330645,15.7849462 280.849462,16.6129032 C279.36828,17.4408602 278.276882,18.6451613 277.497312,20.2258065 C276.561828,21.8064516 276.172043,23.5376344 276.172043,25.4946237 Z" id="Shape" fill="#FFFFFF" fill-rule="nonzero"></path><g id="Group" transform="translate(163.000000, 51.000000)" fill="#FFFFFF"><path d="M5.44,2.1125 C5.44,2.19375 5.36444444,2.19375 5.28888889,2.275 C5.21333333,2.35625 5.21333333,2.35625 5.13777778,2.35625 C5.06222222,2.35625 4.98666667,2.35625 4.91111111,2.275 C4.83555556,2.19375 4.68444444,2.1125 4.53333333,2.03125 C4.38222222,1.95 4.23111111,1.86875 4.00444444,1.7875 C3.77777778,1.70625 3.55111111,1.70625 3.32444444,1.70625 C3.09777778,1.70625 2.79555556,1.70625 2.64444444,1.7875 C2.41777778,1.86875 2.26666667,1.95 2.11555556,2.1125 C1.96444444,2.275 1.88888889,2.4375 1.81333333,2.6 C1.73777778,2.7625 1.73777778,3.00625 1.73777778,3.16875 C1.73777778,3.4125 1.81333333,3.65625 1.88888889,3.81875 C2.04,3.98125 2.19111111,4.14375 2.34222222,4.225 C2.49333333,4.30625 2.79555556,4.46875 3.02222222,4.55 C3.24888889,4.63125 3.55111111,4.7125 3.77777778,4.79375 C4.00444444,4.875 4.30666667,5.0375 4.53333333,5.11875 C4.76,5.2 4.98666667,5.3625 5.21333333,5.60625 C5.44,5.76875 5.59111111,6.0125 5.66666667,6.25625 C5.81777778,6.5 5.81777778,6.825 5.81777778,7.23125 C5.81777778,7.6375 5.74222222,8.04375 5.59111111,8.36875 C5.44,8.69375 5.28888889,9.01875 4.98666667,9.34375 C4.76,9.5875 4.45777778,9.83125 4.08,9.99375 C3.70222222,10.15625 3.32444444,10.2375 2.87111111,10.2375 C2.34222222,10.2375 1.81333333,10.15625 1.36,9.9125 C0.906666667,9.66875 0.528888889,9.425 0.151111111,9.01875 L0.528888889,8.45 C0.528888889,8.36875 0.604444444,8.36875 0.68,8.36875 C0.755555556,8.36875 0.755555556,8.2875 0.831111111,8.2875 C0.906666667,8.2875 0.982222222,8.36875 1.13333333,8.45 C1.20888889,8.53125 1.36,8.69375 1.51111111,8.775 C1.66222222,8.85625 1.88888889,9.01875 2.11555556,9.1 C2.34222222,9.18125 2.64444444,9.2625 2.94666667,9.2625 C3.24888889,9.2625 3.47555556,9.18125 3.70222222,9.1 C3.92888889,9.01875 4.08,8.9375 4.23111111,8.775 C4.38222222,8.6125 4.53333333,8.45 4.60888889,8.20625 C4.68444444,7.9625 4.76,7.8 4.76,7.475 C4.76,7.15 4.68444444,6.9875 4.60888889,6.74375 C4.45777778,6.58125 4.30666667,6.41875 4.15555556,6.25625 C3.92888889,6.09375 3.70222222,6.0125 3.47555556,5.93125 C3.24888889,5.85 2.94666667,5.76875 2.72,5.6875 C2.49333333,5.60625 2.19111111,5.525 1.96444444,5.3625 C1.73777778,5.28125 1.51111111,5.11875 1.28444444,4.875 C1.05777778,4.7125 0.906666667,4.46875 0.831111111,4.14375 C0.755555556,3.81875 0.68,3.49375 0.68,3.0875 C0.68,2.7625 0.755555556,2.4375 0.831111111,2.1125 C0.982222222,1.7875 1.13333333,1.54375 1.36,1.3 C1.58666667,1.05625 1.88888889,0.89375 2.19111111,0.73125 C2.49333333,0.56875 2.94666667,0.4875 3.32444444,0.4875 C3.77777778,0.4875 4.23111111,0.56875 4.68444444,0.73125 C5.06222222,0.89375 5.44,1.1375 5.74222222,1.4625 L5.44,2.1125 Z" id="Path"></path><path d="M9.14222222,10.15625 C8.68888889,10.15625 8.31111111,9.99375 8.00888889,9.75 C7.78222222,9.425 7.63111111,9.01875 7.63111111,8.45 L7.63111111,4.3875 L6.87555556,4.3875 C6.8,4.3875 6.72444444,4.3875 6.72444444,4.30625 C6.64888889,4.225 6.64888889,4.225 6.64888889,4.14375 L6.64888889,3.65625 L7.63111111,3.49375 L7.85777778,1.4625 C7.85777778,1.38125 7.85777778,1.38125 7.93333333,1.3 C8.00888889,1.21875 8.00888889,1.21875 8.08444444,1.21875 L8.61333333,1.21875 L8.61333333,3.49375 L10.3511111,3.49375 L10.3511111,4.30625 L8.61333333,4.30625 L8.61333333,8.2875 C8.61333333,8.53125 8.68888889,8.775 8.84,8.9375 C8.99111111,9.1 9.14222222,9.18125 9.29333333,9.18125 C9.44444444,9.18125 9.52,9.18125 9.59555556,9.1 C9.67111111,9.1 9.74666667,9.01875 9.82222222,9.01875 C9.89777778,8.9375 9.89777778,8.9375 9.97333333,8.9375 C10.0488889,8.9375 10.0488889,8.85625 10.0488889,8.85625 C10.1244444,8.85625 10.1244444,8.85625 10.2,8.9375 L10.5022222,9.50625 C10.3511111,9.66875 10.1244444,9.83125 9.82222222,9.9125 C9.67111111,10.075 9.44444444,10.15625 9.14222222,10.15625 Z" id="Path"></path><path d="M11.7866667,9.99375 L11.7866667,3.33125 L12.3911111,3.33125 C12.5422222,3.33125 12.6177778,3.33125 12.6177778,3.4125 C12.6933333,3.49375 12.6933333,3.575 12.6933333,3.65625 L12.7688889,4.7125 C12.9955556,4.225 13.2222222,3.9 13.5244444,3.65625 C13.8266667,3.4125 14.2044444,3.25 14.5822222,3.25 C14.7333333,3.25 14.8844444,3.25 15.0355556,3.33125 C15.1866667,3.4125 15.3377778,3.4125 15.4133333,3.49375 L15.2622222,4.3875 C15.2622222,4.46875 15.1866667,4.55 15.0355556,4.55 C14.96,4.55 14.8844444,4.55 14.8088889,4.46875 C14.6577778,4.3875 14.5066667,4.3875 14.28,4.3875 C13.9022222,4.3875 13.6,4.46875 13.2977778,4.7125 C13.0711111,4.95625 12.8444444,5.28125 12.6933333,5.76875 L12.6933333,9.99375 L11.7866667,9.99375 Z" id="Path"></path><path d="M19.1911111,3.33125 C19.6444444,3.33125 20.0222222,3.4125 20.4,3.575 C20.7777778,3.7375 21.08,3.98125 21.3066667,4.225 C21.5333333,4.55 21.76,4.875 21.9111111,5.28125 C22.0622222,5.6875 22.1377778,6.175 22.1377778,6.6625 C22.1377778,7.15 22.0622222,7.6375 21.9111111,8.04375 C21.76,8.45 21.6088889,8.85625 21.3066667,9.1 C21.08,9.425 20.7777778,9.5875 20.4,9.75 C20.0222222,9.9125 19.6444444,9.99375 19.1911111,9.99375 C18.7377778,9.99375 18.36,9.9125 17.9822222,9.75 C17.6044444,9.5875 17.3022222,9.34375 17.0755556,9.1 C16.8488889,8.775 16.6222222,8.45 16.4711111,8.04375 C16.32,7.6375 16.2444444,7.15 16.2444444,6.6625 C16.2444444,6.175 16.32,5.6875 16.4711111,5.28125 C16.6222222,4.875 16.7733333,4.46875 17.0755556,4.225 C17.3022222,3.9 17.6044444,3.7375 17.9822222,3.575 C18.36,3.4125 18.7377778,3.33125 19.1911111,3.33125 Z M19.1911111,9.18125 C19.7955556,9.18125 20.2488889,8.9375 20.5511111,8.53125 C20.8533333,8.125 21.0044444,7.475 21.0044444,6.6625 C21.0044444,5.85 20.8533333,5.28125 20.5511111,4.79375 C20.2488889,4.3875 19.7955556,4.14375 19.1911111,4.14375 C18.8888889,4.14375 18.5866667,4.225 18.36,4.30625 C18.1333333,4.3875 17.9066667,4.55 17.7555556,4.79375 C17.6044444,5.0375 17.4533333,5.28125 17.3777778,5.60625 C17.3022222,5.93125 17.3022222,6.25625 17.3022222,6.6625 C17.3022222,7.06875 17.3777778,7.39375 17.3777778,7.71875 C17.4533333,8.04375 17.5288889,8.2875 17.7555556,8.53125 C17.9066667,8.775 18.1333333,8.9375 18.36,9.01875 C18.6622222,9.18125 18.8888889,9.18125 19.1911111,9.18125 Z" id="Shape" fill-rule="nonzero"></path><path d="M23.4977778,9.99375 L23.4977778,3.33125 L24.1777778,3.33125 C24.3288889,3.33125 24.4044444,3.4125 24.48,3.575 L24.5555556,4.30625 C24.8577778,3.98125 25.0844444,3.7375 25.4622222,3.49375 C25.7644444,3.33125 26.1422222,3.16875 26.5955556,3.16875 C26.8977778,3.16875 27.2,3.25 27.5022222,3.33125 C27.7288889,3.4125 27.9555556,3.65625 28.1822222,3.81875 C28.3333333,4.0625 28.4844444,4.30625 28.56,4.63125 C28.6355556,4.95625 28.7111111,5.28125 28.7111111,5.6875 L28.7111111,9.9125 L27.6533333,9.9125 L27.6533333,5.6875 C27.6533333,5.2 27.5777778,4.79375 27.3511111,4.55 C27.1244444,4.30625 26.8222222,4.14375 26.3688889,4.14375 C26.0666667,4.14375 25.7644444,4.225 25.4622222,4.3875 C25.16,4.55 24.9333333,4.79375 24.7066667,5.0375 L24.7066667,9.9125 L23.4977778,9.9125 L23.4977778,9.99375 Z" id="Path"></path><path d="M32.3377778,3.25 C32.64,3.25 32.8666667,3.25 33.0933333,3.33125 C33.32,3.4125 33.5466667,3.49375 33.6977778,3.575 L35.36,3.575 L35.36,4.0625 C35.36,4.225 35.2844444,4.30625 35.1333333,4.30625 L34.4533333,4.3875 C34.6044444,4.7125 34.68,4.95625 34.68,5.3625 C34.68,5.6875 34.6044444,6.0125 34.5288889,6.25625 C34.3777778,6.5 34.2266667,6.74375 34.0755556,6.90625 C33.8488889,7.06875 33.6222222,7.23125 33.32,7.3125 C33.0177778,7.39375 32.7155556,7.475 32.4133333,7.475 C32.1111111,7.475 31.8844444,7.475 31.5822222,7.39375 C31.4311111,7.475 31.3555556,7.55625 31.28,7.71875 C31.2044444,7.8 31.2044444,7.9625 31.2044444,8.04375 C31.2044444,8.20625 31.28,8.36875 31.3555556,8.45 C31.5066667,8.53125 31.6577778,8.6125 31.8088889,8.6125 C32.0355556,8.6125 32.1866667,8.69375 32.4888889,8.69375 C32.7155556,8.69375 33.0177778,8.69375 33.2444444,8.69375 C33.4711111,8.69375 33.7733333,8.69375 34,8.775 C34.2266667,8.85625 34.4533333,8.9375 34.68,9.01875 C34.9066667,9.1 35.0577778,9.2625 35.1333333,9.50625 C35.2844444,9.66875 35.2844444,9.9125 35.2844444,10.2375 C35.2844444,10.5625 35.2088889,10.80625 35.0577778,11.05 C34.9066667,11.29375 34.7555556,11.5375 34.4533333,11.78125 C34.2266667,12.025 33.9244444,12.1875 33.5466667,12.26875 C33.1688889,12.43125 32.7911111,12.43125 32.3377778,12.43125 C31.8844444,12.43125 31.5066667,12.35 31.1288889,12.26875 C30.8266667,12.1875 30.5244444,12.025 30.2977778,11.8625 C30.0711111,11.7 29.92,11.5375 29.7688889,11.29375 C29.6933333,11.05 29.6177778,10.8875 29.6177778,10.64375 C29.6177778,10.31875 29.6933333,10.075 29.92,9.83125 C30.1466667,9.5875 30.3733333,9.425 30.7511111,9.2625 C30.6,9.18125 30.4488889,9.01875 30.2977778,8.9375 C30.2222222,8.775 30.1466667,8.6125 30.1466667,8.36875 C30.1466667,8.2875 30.1466667,8.20625 30.2222222,8.04375 C30.2222222,7.9625 30.2977778,7.8 30.3733333,7.71875 C30.4488889,7.6375 30.5244444,7.55625 30.6,7.39375 C30.6755556,7.23125 30.8266667,7.23125 30.9777778,7.15 C30.6755556,6.9875 30.4488889,6.74375 30.2977778,6.41875 C30.1466667,6.09375 30.0711111,5.76875 30.0711111,5.3625 C30.0711111,5.0375 30.1466667,4.7125 30.2222222,4.46875 C30.3733333,4.225 30.5244444,3.98125 30.6755556,3.81875 C30.9022222,3.65625 31.1288889,3.49375 31.4311111,3.4125 C31.6577778,3.33125 31.96,3.25 32.3377778,3.25 Z M34.2266667,10.4 C34.2266667,10.2375 34.1511111,10.075 34.0755556,9.99375 C34,9.9125 33.8488889,9.83125 33.6977778,9.75 C33.5466667,9.66875 33.3955556,9.66875 33.1688889,9.5875 C32.9422222,9.5875 32.7911111,9.5875 32.5644444,9.5875 C32.3377778,9.5875 32.1111111,9.5875 31.8844444,9.5875 C31.6577778,9.5875 31.4311111,9.5875 31.28,9.50625 C31.0533333,9.5875 30.8266667,9.75 30.7511111,9.9125 C30.6,10.075 30.5244444,10.31875 30.5244444,10.5625 C30.5244444,10.725 30.5244444,10.8875 30.6,10.96875 C30.6755556,11.13125 30.7511111,11.2125 30.9022222,11.29375 C31.0533333,11.375 31.2044444,11.45625 31.4311111,11.5375 C31.6577778,11.61875 31.8844444,11.61875 32.1866667,11.61875 C32.4888889,11.61875 32.7155556,11.61875 32.9422222,11.5375 C33.1688889,11.45625 33.3955556,11.375 33.5466667,11.29375 C33.6977778,11.2125 33.8488889,11.05 33.9244444,10.8875 C34.2266667,10.725 34.2266667,10.5625 34.2266667,10.4 Z M32.3377778,6.825 C32.5644444,6.825 32.7155556,6.825 32.9422222,6.74375 C33.0933333,6.6625 33.2444444,6.58125 33.3955556,6.5 C33.5466667,6.41875 33.6222222,6.25625 33.6222222,6.09375 C33.6977778,5.93125 33.6977778,5.76875 33.6977778,5.525 C33.6977778,5.11875 33.5466667,4.79375 33.32,4.55 C33.0933333,4.30625 32.7911111,4.225 32.3377778,4.225 C31.8844444,4.225 31.5822222,4.30625 31.3555556,4.55 C31.1288889,4.79375 30.9777778,5.11875 30.9777778,5.525 C30.9777778,5.6875 30.9777778,5.93125 31.0533333,6.09375 C31.1288889,6.25625 31.2044444,6.41875 31.28,6.5 C31.4311111,6.58125 31.5066667,6.74375 31.7333333,6.74375 C31.8844444,6.74375 32.1111111,6.825 32.3377778,6.825 Z" id="Shape" fill-rule="nonzero"></path><path d="M40.2711111,1.3 C40.2711111,1.38125 40.2711111,1.54375 40.1955556,1.625 C40.12,1.70625 40.12,1.7875 40.0444444,1.86875 C39.9688889,1.95 39.8933333,2.03125 39.8177778,2.03125 C39.7422222,2.1125 39.5911111,2.1125 39.5155556,2.1125 C39.44,2.1125 39.2888889,2.1125 39.2133333,2.03125 C39.1377778,1.95 39.0622222,1.95 38.9866667,1.86875 C38.9111111,1.7875 38.8355556,1.70625 38.8355556,1.625 C38.76,1.54375 38.76,1.38125 38.76,1.3 C38.76,1.21875 38.76,1.05625 38.8355556,0.975 C38.9111111,0.89375 38.9111111,0.8125 38.9866667,0.73125 C39.0622222,0.65 39.1377778,0.56875 39.2133333,0.56875 C39.2888889,0.4875 39.44,0.4875 39.5155556,0.4875 C39.5911111,0.4875 39.7422222,0.4875 39.8177778,0.56875 C39.8933333,0.65 39.9688889,0.65 40.0444444,0.73125 C40.12,0.8125 40.1955556,0.89375 40.1955556,0.975 C40.2711111,1.1375 40.2711111,1.21875 40.2711111,1.3 Z M40.0444444,3.4125 L40.0444444,10.075 L38.9866667,10.075 L38.9866667,3.4125 L40.0444444,3.4125 Z" id="Shape" fill-rule="nonzero"></path><path d="M41.9333333,9.99375 L41.9333333,3.33125 L42.6133333,3.33125 C42.7644444,3.33125 42.84,3.4125 42.9155556,3.575 L42.9911111,4.30625 C43.2933333,3.98125 43.52,3.7375 43.8977778,3.49375 C44.2,3.33125 44.5777778,3.16875 45.0311111,3.16875 C45.3333333,3.16875 45.6355556,3.25 45.9377778,3.33125 C46.1644444,3.4125 46.3911111,3.65625 46.6177778,3.81875 C46.7688889,4.0625 46.92,4.30625 46.9955556,4.63125 C47.0711111,4.95625 47.1466667,5.28125 47.1466667,5.6875 L47.1466667,9.9125 L46.0888889,9.9125 L46.0888889,5.6875 C46.0888889,5.2 46.0133333,4.79375 45.7866667,4.55 C45.56,4.30625 45.2577778,4.14375 44.8044444,4.14375 C44.5022222,4.14375 44.2,4.225 43.8977778,4.3875 C43.5955556,4.55 43.3688889,4.79375 43.1422222,5.0375 L43.1422222,9.9125 L41.9333333,9.9125 L41.9333333,9.99375 Z" id="Path"></path><path d="M54.5511111,4.46875 C54.4755556,4.55 54.4,4.63125 54.3244444,4.63125 C54.2488889,4.63125 54.1733333,4.63125 54.0977778,4.55 C54.0222222,4.46875 53.9466667,4.46875 53.7955556,4.3875 C53.72,4.30625 53.5688889,4.30625 53.4177778,4.225 C53.2666667,4.14375 53.1155556,4.14375 52.8888889,4.14375 C52.7377778,4.14375 52.5111111,4.14375 52.36,4.225 C52.2088889,4.30625 52.0577778,4.30625 51.9822222,4.46875 C51.9066667,4.55 51.8311111,4.63125 51.7555556,4.79375 C51.68,4.875 51.68,5.0375 51.68,5.2 C51.68,5.3625 51.7555556,5.525 51.8311111,5.60625 C51.9066667,5.6875 52.0577778,5.85 52.2088889,5.93125 C52.36,6.0125 52.5111111,6.09375 52.7377778,6.175 C52.9644444,6.25625 53.1155556,6.3375 53.3422222,6.41875 C53.5688889,6.5 53.72,6.58125 53.9466667,6.6625 C54.1733333,6.74375 54.3244444,6.825 54.4755556,6.9875 C54.6266667,7.15 54.7777778,7.3125 54.8533333,7.475 C54.9288889,7.6375 55.0044444,7.88125 55.0044444,8.125 C55.0044444,8.45 54.9288889,8.69375 54.8533333,8.9375 C54.7777778,9.18125 54.6266667,9.425 54.4,9.5875 C54.1733333,9.75 53.9466667,9.9125 53.6444444,10.075 C53.3422222,10.15625 53.04,10.2375 52.6622222,10.2375 C52.2088889,10.2375 51.8311111,10.15625 51.5288889,9.99375 C51.1511111,9.83125 50.8488889,9.66875 50.6222222,9.425 L50.8488889,9.01875 C50.8488889,8.9375 50.9244444,8.9375 51,8.85625 C51.0755556,8.85625 51.0755556,8.775 51.1511111,8.775 C51.2266667,8.775 51.3022222,8.775 51.3777778,8.85625 C51.4533333,8.9375 51.5288889,9.01875 51.68,9.1 C51.8311111,9.18125 51.9066667,9.2625 52.1333333,9.2625 C52.2844444,9.34375 52.5111111,9.34375 52.7377778,9.34375 C52.9644444,9.34375 53.1155556,9.34375 53.2666667,9.2625 C53.4177778,9.18125 53.5688889,9.1 53.6444444,9.01875 C53.72,8.9375 53.7955556,8.775 53.8711111,8.69375 C53.9466667,8.53125 53.9466667,8.45 53.9466667,8.2875 C53.9466667,8.125 53.8711111,7.9625 53.7955556,7.8 C53.72,7.71875 53.5688889,7.55625 53.4177778,7.475 C53.2666667,7.39375 53.1155556,7.3125 52.8888889,7.23125 C52.6622222,7.15 52.5111111,7.06875 52.2844444,7.06875 C52.0577778,6.9875 51.9066667,6.90625 51.68,6.825 C51.4533333,6.74375 51.3022222,6.58125 51.1511111,6.5 C51,6.41875 50.8488889,6.175 50.7733333,6.0125 C50.6977778,5.85 50.6222222,5.60625 50.6222222,5.28125 C50.6222222,5.0375 50.6977778,4.79375 50.7733333,4.55 C50.8488889,4.30625 51,4.14375 51.2266667,3.9 C51.3777778,3.7375 51.68,3.575 51.9066667,3.49375 C52.2088889,3.4125 52.5111111,3.33125 52.8133333,3.33125 C53.1911111,3.33125 53.5688889,3.4125 53.8711111,3.575 C54.1733333,3.7375 54.4755556,3.9 54.7022222,4.14375 L54.5511111,4.46875 Z" id="Path"></path><path d="M58.1777778,10.15625 C57.7244444,10.15625 57.3466667,9.99375 57.0444444,9.75 C56.8177778,9.425 56.6666667,9.01875 56.6666667,8.45 L56.6666667,4.3875 L55.9111111,4.3875 C55.8355556,4.3875 55.76,4.3875 55.76,4.30625 C55.6844444,4.225 55.6844444,4.225 55.6844444,4.14375 L55.6844444,3.65625 L56.6666667,3.49375 L56.8933333,1.4625 C56.8933333,1.38125 56.8933333,1.38125 56.9688889,1.3 C57.0444444,1.21875 57.0444444,1.21875 57.12,1.21875 L57.6488889,1.21875 L57.6488889,3.49375 L59.3866667,3.49375 L59.3866667,4.30625 L57.6488889,4.30625 L57.6488889,8.2875 C57.6488889,8.53125 57.7244444,8.775 57.8755556,8.9375 C58.0266667,9.1 58.1777778,9.18125 58.3288889,9.18125 C58.48,9.18125 58.5555556,9.18125 58.6311111,9.1 C58.7066667,9.1 58.7822222,9.01875 58.8577778,9.01875 C58.9333333,8.9375 58.9333333,8.9375 59.0088889,8.9375 C59.0844444,8.9375 59.0844444,8.85625 59.0844444,8.85625 C59.16,8.85625 59.16,8.85625 59.2355556,8.9375 L59.5377778,9.50625 C59.3866667,9.66875 59.16,9.83125 58.8577778,9.9125 C58.7066667,10.075 58.48,10.15625 58.1777778,10.15625 Z" id="Path"></path><path d="M63.3155556,3.33125 C63.6933333,3.33125 63.9955556,3.4125 64.3733333,3.49375 C64.6755556,3.65625 64.9777778,3.81875 65.2044444,4.0625 C65.4311111,4.30625 65.5822222,4.63125 65.7333333,4.95625 C65.8844444,5.3625 65.96,5.76875 65.96,6.25625 C65.96,6.41875 65.96,6.58125 65.8844444,6.6625 C65.8844444,6.74375 65.8088889,6.74375 65.6577778,6.74375 L61.5777778,6.74375 C61.5777778,7.15 61.6533333,7.55625 61.7288889,7.8 C61.8044444,8.125 61.9555556,8.36875 62.1066667,8.6125 C62.2577778,8.85625 62.4844444,8.9375 62.7111111,9.1 C62.9377778,9.18125 63.24,9.2625 63.4666667,9.2625 C63.7688889,9.2625 63.9955556,9.2625 64.1466667,9.18125 C64.3733333,9.1 64.5244444,9.01875 64.6755556,8.9375 C64.8266667,8.85625 64.9022222,8.775 65.0533333,8.69375 C65.1288889,8.6125 65.2044444,8.6125 65.28,8.6125 C65.3555556,8.6125 65.4311111,8.6125 65.5066667,8.69375 L65.8088889,9.1 C65.6577778,9.2625 65.5066667,9.425 65.3555556,9.5875 C65.2044444,9.75 64.9777778,9.83125 64.7511111,9.9125 C64.5244444,9.99375 64.2977778,10.075 64.0711111,10.075 C63.8444444,10.15625 63.6177778,10.15625 63.3911111,10.15625 C62.9377778,10.15625 62.56,10.075 62.1822222,9.9125 C61.8044444,9.75 61.5022222,9.50625 61.2755556,9.2625 C61.0488889,8.9375 60.8222222,8.6125 60.6711111,8.125 C60.52,7.71875 60.4444444,7.15 60.4444444,6.58125 C60.4444444,6.09375 60.52,5.6875 60.6711111,5.28125 C60.8222222,4.875 60.9733333,4.55 61.2755556,4.225 C61.5022222,3.9 61.8044444,3.7375 62.1822222,3.49375 C62.4844444,3.4125 62.8622222,3.33125 63.3155556,3.33125 Z M63.3155556,4.14375 C62.7866667,4.14375 62.4088889,4.30625 62.1066667,4.63125 C61.8044444,4.95625 61.6533333,5.44375 61.5777778,6.0125 L64.9022222,6.0125 C64.9022222,5.76875 64.9022222,5.525 64.8266667,5.28125 C64.7511111,5.0375 64.6755556,4.875 64.5244444,4.7125 C64.3733333,4.55 64.2222222,4.3875 64.0711111,4.30625 C63.92,4.225 63.5422222,4.14375 63.3155556,4.14375 Z" id="Shape" fill-rule="nonzero"></path><path d="M69.6622222,3.33125 C70.04,3.33125 70.3422222,3.4125 70.72,3.49375 C71.0222222,3.65625 71.3244444,3.81875 71.5511111,4.0625 C71.7777778,4.30625 71.9288889,4.63125 72.08,4.95625 C72.2311111,5.3625 72.3066667,5.76875 72.3066667,6.25625 C72.3066667,6.41875 72.3066667,6.58125 72.2311111,6.6625 C72.2311111,6.74375 72.1555556,6.74375 72.0044444,6.74375 L67.9244444,6.74375 C67.9244444,7.15 68,7.55625 68.0755556,7.8 C68.1511111,8.125 68.3022222,8.36875 68.4533333,8.6125 C68.6044444,8.85625 68.8311111,8.9375 69.0577778,9.1 C69.2844444,9.18125 69.5866667,9.2625 69.8133333,9.2625 C70.1155556,9.2625 70.3422222,9.2625 70.4933333,9.18125 C70.72,9.1 70.8711111,9.01875 71.0222222,8.9375 C71.1733333,8.85625 71.2488889,8.775 71.4,8.69375 C71.4755556,8.6125 71.5511111,8.6125 71.6266667,8.6125 C71.7022222,8.6125 71.7777778,8.6125 71.8533333,8.69375 L72.1555556,9.1 C72.0044444,9.2625 71.8533333,9.425 71.7022222,9.5875 C71.5511111,9.75 71.3244444,9.83125 71.0977778,9.9125 C70.8711111,9.99375 70.6444444,10.075 70.4177778,10.075 C70.1911111,10.15625 69.9644444,10.15625 69.7377778,10.15625 C69.2844444,10.15625 68.9066667,10.075 68.5288889,9.9125 C68.1511111,9.75 67.8488889,9.50625 67.6222222,9.2625 C67.3955556,8.9375 67.1688889,8.6125 67.0177778,8.125 C66.8666667,7.71875 66.7911111,7.15 66.7911111,6.58125 C66.7911111,6.09375 66.8666667,5.6875 67.0177778,5.28125 C67.1688889,4.875 67.32,4.55 67.6222222,4.225 C67.8488889,3.9 68.1511111,3.7375 68.5288889,3.49375 C68.8311111,3.4125 69.2088889,3.33125 69.6622222,3.33125 Z M69.6622222,4.14375 C69.1333333,4.14375 68.7555556,4.30625 68.4533333,4.63125 C68.1511111,4.95625 68,5.44375 67.9244444,6.0125 L71.2488889,6.0125 C71.2488889,5.76875 71.2488889,5.525 71.1733333,5.28125 C71.0977778,5.0375 71.0222222,4.875 70.8711111,4.7125 C70.72,4.55 70.5688889,4.3875 70.4177778,4.30625 C70.2666667,4.225 69.9644444,4.14375 69.6622222,4.14375 Z" id="Shape" fill-rule="nonzero"></path><polygon id="Path" points="74.8 0.40625 74.8 10.075 73.7422222 10.075 73.7422222 0.40625"></polygon><path d="M82.5822222,4.46875 C82.5066667,4.55 82.4311111,4.63125 82.3555556,4.63125 C82.28,4.63125 82.2044444,4.63125 82.1288889,4.55 C82.0533333,4.46875 81.9777778,4.46875 81.8266667,4.3875 C81.7511111,4.30625 81.6,4.30625 81.4488889,4.225 C81.2977778,4.14375 81.1466667,4.14375 80.92,4.14375 C80.7688889,4.14375 80.5422222,4.14375 80.3911111,4.225 C80.24,4.30625 80.0888889,4.30625 80.0133333,4.46875 C79.9377778,4.55 79.8622222,4.63125 79.7866667,4.79375 C79.7111111,4.875 79.7111111,5.0375 79.7111111,5.2 C79.7111111,5.3625 79.7866667,5.525 79.8622222,5.60625 C79.9377778,5.6875 80.0888889,5.85 80.24,5.93125 C80.3911111,6.0125 80.5422222,6.09375 80.7688889,6.175 C80.9955556,6.25625 81.1466667,6.3375 81.3733333,6.41875 C81.6,6.5 81.7511111,6.58125 81.9777778,6.6625 C82.2044444,6.74375 82.3555556,6.825 82.5066667,6.9875 C82.6577778,7.15 82.8088889,7.3125 82.8844444,7.475 C82.96,7.6375 83.0355556,7.88125 83.0355556,8.125 C83.0355556,8.45 82.96,8.69375 82.8844444,8.9375 C82.8088889,9.18125 82.6577778,9.425 82.4311111,9.5875 C82.2044444,9.75 81.9777778,9.9125 81.6755556,10.075 C81.3733333,10.15625 81.0711111,10.2375 80.6933333,10.2375 C80.24,10.2375 79.8622222,10.15625 79.56,9.99375 C79.1822222,9.83125 78.88,9.66875 78.6533333,9.425 L78.88,9.01875 C78.88,8.9375 78.9555556,8.9375 79.0311111,8.85625 C79.1066667,8.85625 79.1066667,8.775 79.1822222,8.775 C79.2577778,8.775 79.3333333,8.775 79.4088889,8.85625 C79.4844444,8.9375 79.56,9.01875 79.7111111,9.1 C79.8622222,9.18125 79.9377778,9.2625 80.1644444,9.2625 C80.3155556,9.34375 80.5422222,9.34375 80.7688889,9.34375 C80.9955556,9.34375 81.1466667,9.34375 81.2977778,9.2625 C81.4488889,9.18125 81.6,9.1 81.6755556,9.01875 C81.7511111,8.9375 81.8266667,8.775 81.9022222,8.69375 C81.9777778,8.53125 81.9777778,8.45 81.9777778,8.2875 C81.9777778,8.125 81.9022222,7.9625 81.8266667,7.8 C81.7511111,7.71875 81.6,7.55625 81.4488889,7.475 C81.2977778,7.39375 81.1466667,7.3125 80.92,7.23125 C80.6933333,7.15 80.5422222,7.06875 80.3155556,7.06875 C80.0888889,6.9875 79.9377778,6.90625 79.7111111,6.825 C79.4844444,6.74375 79.3333333,6.58125 79.1822222,6.5 C79.0311111,6.41875 78.88,6.175 78.8044444,6.0125 C78.7288889,5.85 78.6533333,5.60625 78.6533333,5.28125 C78.6533333,5.0375 78.7288889,4.79375 78.8044444,4.55 C78.88,4.30625 79.0311111,4.14375 79.2577778,3.9 C79.4088889,3.7375 79.7111111,3.575 79.9377778,3.49375 C80.24,3.4125 80.5422222,3.33125 80.8444444,3.33125 C81.2222222,3.33125 81.6,3.4125 81.9022222,3.575 C82.2044444,3.7375 82.5066667,3.9 82.7333333,4.14375 L82.5822222,4.46875 Z" id="Path"></path><path d="M85.8311111,1.3 C85.8311111,1.38125 85.8311111,1.54375 85.7555556,1.625 C85.68,1.70625 85.68,1.7875 85.6044444,1.86875 C85.5288889,1.95 85.4533333,2.03125 85.3777778,2.03125 C85.3022222,2.1125 85.1511111,2.1125 85.0755556,2.1125 C85,2.1125 84.8488889,2.1125 84.7733333,2.03125 C84.6977778,1.95 84.6222222,1.95 84.5466667,1.86875 C84.4711111,1.7875 84.3955556,1.70625 84.3955556,1.625 C84.32,1.54375 84.32,1.38125 84.32,1.3 C84.32,1.21875 84.32,1.05625 84.3955556,0.975 C84.4711111,0.89375 84.4711111,0.8125 84.5466667,0.73125 C84.6222222,0.65 84.6977778,0.56875 84.7733333,0.56875 C84.8488889,0.4875 85,0.4875 85.0755556,0.4875 C85.1511111,0.4875 85.3022222,0.4875 85.3777778,0.56875 C85.4533333,0.65 85.5288889,0.65 85.6044444,0.73125 C85.68,0.8125 85.7555556,0.89375 85.7555556,0.975 C85.7555556,1.1375 85.8311111,1.21875 85.8311111,1.3 Z M85.5288889,3.4125 L85.5288889,10.075 L84.4711111,10.075 L84.4711111,3.4125 L85.5288889,3.4125 Z" id="Shape" fill-rule="nonzero"></path><path d="M87.4933333,9.99375 L87.4933333,3.33125 L88.1733333,3.33125 C88.3244444,3.33125 88.4,3.4125 88.4755556,3.575 L88.5511111,4.30625 C88.8533333,3.98125 89.08,3.7375 89.4577778,3.49375 C89.76,3.33125 90.1377778,3.16875 90.5911111,3.16875 C90.8933333,3.16875 91.1955556,3.25 91.4977778,3.33125 C91.7244444,3.4125 91.9511111,3.65625 92.1777778,3.81875 C92.3288889,4.0625 92.48,4.30625 92.5555556,4.63125 C92.6311111,4.95625 92.7066667,5.28125 92.7066667,5.6875 L92.7066667,9.9125 L91.6488889,9.9125 L91.6488889,5.6875 C91.6488889,5.2 91.5733333,4.79375 91.3466667,4.55 C91.12,4.30625 90.8177778,4.14375 90.3644444,4.14375 C90.0622222,4.14375 89.76,4.225 89.4577778,4.3875 C89.1555556,4.55 88.9288889,4.79375 88.7022222,5.0375 L88.7022222,9.9125 L87.4933333,9.9125 L87.4933333,9.99375 Z" id="Path"></path><path d="M98.4488889,4.55 C98.4488889,4.63125 98.3733333,4.63125 98.3733333,4.63125 C98.3733333,4.63125 98.2977778,4.63125 98.2222222,4.63125 C98.1466667,4.63125 98.0711111,4.63125 97.9955556,4.55 C97.92,4.46875 97.8444444,4.46875 97.6933333,4.3875 C97.6177778,4.30625 97.4666667,4.225 97.3155556,4.225 C97.1644444,4.14375 96.9377778,4.14375 96.7111111,4.14375 C96.4088889,4.14375 96.1822222,4.225 95.88,4.30625 C95.6533333,4.3875 95.4266667,4.55 95.2755556,4.79375 C95.1244444,5.0375 94.9733333,5.28125 94.8977778,5.60625 C94.8222222,5.93125 94.7466667,6.25625 94.7466667,6.6625 C94.7466667,7.06875 94.8222222,7.39375 94.8977778,7.71875 C94.9733333,8.04375 95.1244444,8.2875 95.2755556,8.53125 C95.4266667,8.775 95.6533333,8.9375 95.8044444,9.01875 C96.0311111,9.1 96.2577778,9.18125 96.56,9.18125 C96.7866667,9.18125 97.0133333,9.18125 97.24,9.1 C97.3911111,9.01875 97.5422222,8.9375 97.6933333,8.85625 C97.8444444,8.775 97.92,8.69375 97.9955556,8.6125 C98.0711111,8.53125 98.1466667,8.53125 98.2222222,8.53125 C98.2977778,8.53125 98.3733333,8.53125 98.4488889,8.6125 L98.7511111,9.01875 C98.4488889,9.34375 98.1466667,9.66875 97.7688889,9.83125 C97.3911111,9.99375 96.9377778,10.075 96.4844444,10.075 C96.1066667,10.075 95.7288889,9.99375 95.4266667,9.83125 C95.1244444,9.66875 94.8222222,9.425 94.5955556,9.18125 C94.3688889,8.85625 94.1422222,8.53125 93.9911111,8.125 C93.84,7.71875 93.7644444,7.23125 93.7644444,6.6625 C93.7644444,6.175 93.84,5.6875 93.9911111,5.28125 C94.1422222,4.875 94.2933333,4.46875 94.52,4.225 C94.7466667,3.9 95.0488889,3.65625 95.4266667,3.49375 C95.8044444,3.33125 96.1822222,3.25 96.6355556,3.25 C97.0888889,3.25 97.4666667,3.33125 97.7688889,3.49375 C98.0711111,3.65625 98.3733333,3.81875 98.6755556,4.14375 L98.4488889,4.55 Z" id="Path"></path><path d="M102.377778,3.33125 C102.755556,3.33125 103.057778,3.4125 103.435556,3.49375 C103.737778,3.65625 104.04,3.81875 104.266667,4.0625 C104.493333,4.30625 104.644444,4.63125 104.795556,4.95625 C104.946667,5.3625 105.022222,5.76875 105.022222,6.25625 C105.022222,6.41875 105.022222,6.58125 104.946667,6.6625 C104.946667,6.74375 104.871111,6.74375 104.72,6.74375 L100.64,6.74375 C100.64,7.15 100.715556,7.55625 100.791111,7.8 C100.866667,8.125 101.017778,8.36875 101.168889,8.6125 C101.32,8.85625 101.546667,8.9375 101.773333,9.1 C102,9.18125 102.302222,9.2625 102.528889,9.2625 C102.831111,9.2625 103.057778,9.2625 103.208889,9.18125 C103.435556,9.1 103.586667,9.01875 103.737778,8.9375 C103.888889,8.85625 103.964444,8.775 104.115556,8.69375 C104.191111,8.6125 104.266667,8.6125 104.342222,8.6125 C104.417778,8.6125 104.493333,8.6125 104.568889,8.69375 L104.871111,9.1 C104.72,9.2625 104.568889,9.425 104.417778,9.5875 C104.266667,9.75 104.04,9.83125 103.813333,9.9125 C103.586667,9.99375 103.36,10.075 103.133333,10.075 C102.906667,10.15625 102.68,10.15625 102.453333,10.15625 C102,10.15625 101.622222,10.075 101.244444,9.9125 C100.866667,9.75 100.564444,9.50625 100.337778,9.2625 C100.111111,8.9375 99.8844444,8.6125 99.7333333,8.125 C99.5822222,7.71875 99.5066667,7.15 99.5066667,6.58125 C99.5066667,6.09375 99.5822222,5.6875 99.7333333,5.28125 C99.8844444,4.875 100.035556,4.55 100.337778,4.225 C100.564444,3.9 100.866667,3.7375 101.244444,3.49375 C101.471111,3.4125 101.924444,3.33125 102.377778,3.33125 Z M102.377778,4.14375 C101.848889,4.14375 101.471111,4.30625 101.168889,4.63125 C100.866667,4.95625 100.715556,5.44375 100.64,6.0125 L103.964444,6.0125 C103.964444,5.76875 103.964444,5.525 103.888889,5.28125 C103.813333,5.0375 103.737778,4.875 103.586667,4.7125 C103.435556,4.55 103.284444,4.3875 103.133333,4.30625 C102.982222,4.225 102.604444,4.14375 102.377778,4.14375 Z" id="Shape" fill-rule="nonzero"></path><path d="M109.48,9.1 L111.368889,9.1 L111.368889,2.68125 C111.368889,2.51875 111.368889,2.275 111.368889,2.1125 L109.782222,3.575 C109.706667,3.575 109.706667,3.65625 109.631111,3.65625 C109.555556,3.65625 109.555556,3.65625 109.48,3.65625 C109.404444,3.65625 109.328889,3.65625 109.328889,3.575 C109.253333,3.575 109.253333,3.49375 109.253333,3.49375 L108.875556,3.00625 L111.444444,0.56875 L112.351111,0.56875 L112.351111,9.1 L114.088889,9.1 L114.088889,9.99375 L109.404444,9.99375 L109.404444,9.1 L109.48,9.1 Z" id="Path"></path><path d="M118.168889,6.175 C117.866667,6.175 117.564444,6.09375 117.262222,6.0125 C116.96,5.93125 116.733333,5.6875 116.506667,5.525 C116.28,5.3625 116.128889,5.0375 115.977778,4.7125 C115.826667,4.3875 115.751111,3.98125 115.751111,3.575 C115.751111,3.16875 115.826667,2.7625 115.977778,2.4375 C116.128889,2.1125 116.355556,1.7875 116.582222,1.4625 C116.808889,1.21875 117.111111,0.975 117.488889,0.8125 C117.866667,0.65 118.244444,0.56875 118.622222,0.56875 C119.075556,0.56875 119.453333,0.65 119.755556,0.8125 C120.133333,0.975 120.36,1.1375 120.662222,1.4625 C120.964444,1.7875 121.115556,2.03125 121.191111,2.4375 C121.342222,2.84375 121.417778,3.25 121.417778,3.65625 C121.417778,3.9 121.417778,4.14375 121.342222,4.3875 C121.266667,4.63125 121.191111,4.875 121.115556,5.11875 C121.04,5.3625 120.888889,5.60625 120.813333,5.85 C120.662222,6.09375 120.511111,6.3375 120.36,6.58125 L118.244444,9.9125 C118.168889,9.99375 118.093333,10.075 118.017778,10.075 C117.942222,10.15625 117.791111,10.15625 117.715556,10.15625 L116.733333,10.15625 L119.377778,6.41875 C119.453333,6.25625 119.528889,6.175 119.604444,6.09375 C119.68,6.0125 119.755556,5.85 119.831111,5.76875 C119.604444,5.93125 119.377778,6.09375 119.075556,6.175 C118.773333,6.09375 118.471111,6.175 118.168889,6.175 Z M120.36,3.4125 C120.36,3.0875 120.284444,2.84375 120.208889,2.6 C120.133333,2.35625 119.982222,2.19375 119.831111,2.03125 C119.68,1.86875 119.528889,1.70625 119.302222,1.625 C119.075556,1.54375 118.848889,1.4625 118.622222,1.4625 C118.32,1.4625 118.093333,1.54375 117.866667,1.625 C117.64,1.70625 117.488889,1.86875 117.337778,2.03125 C117.186667,2.19375 117.035556,2.35625 116.96,2.6 C116.884444,2.84375 116.808889,3.0875 116.808889,3.33125 C116.808889,3.65625 116.884444,3.9 116.96,4.14375 C117.035556,4.3875 117.186667,4.55 117.337778,4.7125 C117.488889,4.875 117.64,5.0375 117.866667,5.11875 C118.093333,5.2 118.32,5.28125 118.546667,5.28125 C118.848889,5.28125 119.075556,5.2 119.302222,5.11875 C119.528889,5.0375 119.68,4.875 119.906667,4.7125 C120.057778,4.55 120.208889,4.30625 120.284444,4.14375 C120.284444,3.9 120.36,3.65625 120.36,3.4125 Z" id="Shape" fill-rule="nonzero"></path><path d="M128.444444,0.65 L128.444444,1.1375 C128.444444,1.3 128.444444,1.38125 128.368889,1.54375 C128.368889,1.625 128.293333,1.70625 128.293333,1.7875 L124.666667,9.5875 C124.591111,9.66875 124.515556,9.83125 124.44,9.9125 C124.364444,9.99375 124.213333,9.99375 124.062222,9.99375 L123.306667,9.99375 L126.933333,2.275 C127.008889,2.19375 127.008889,2.03125 127.084444,1.95 C127.16,1.86875 127.235556,1.7875 127.235556,1.70625 L122.702222,1.70625 C122.626667,1.70625 122.551111,1.70625 122.551111,1.625 C122.475556,1.54375 122.475556,1.4625 122.475556,1.4625 L122.475556,0.65 L128.444444,0.65 Z" id="Path"></path><path d="M134.413333,6.6625 L135.697778,6.6625 L135.697778,7.3125 C135.697778,7.39375 135.697778,7.475 135.622222,7.475 C135.546667,7.55625 135.546667,7.55625 135.471111,7.55625 L134.413333,7.55625 L134.413333,9.99375 L133.431111,9.99375 L133.431111,7.55625 L129.577778,7.55625 C129.502222,7.55625 129.426667,7.55625 129.351111,7.475 C129.275556,7.39375 129.275556,7.39375 129.275556,7.3125 L129.2,6.74375 L133.431111,0.73125 L134.413333,0.73125 L134.413333,6.6625 Z M133.431111,2.7625 C133.431111,2.68125 133.431111,2.51875 133.431111,2.35625 C133.431111,2.19375 133.431111,2.1125 133.506667,1.95 L130.333333,6.58125 L133.431111,6.58125 L133.431111,2.7625 Z" id="Shape" fill-rule="nonzero"></path></g><path d="M83,24.3169734 C83,26.8139059 82.5429975,29.00818 81.6289926,30.9754601 C80.7149877,32.9427403 79.4201474,34.4560327 77.7444717,35.591002 C76.0687961,36.7259714 74.1646192,37.2556237 71.955774,37.2556237 C69.2899263,37.2556237 66.7764128,36.196319 64.4914005,34.0777096 L64.4914005,42.1738241 L69.5184275,42.1738241 L69.5184275,48 L52,48 L52,42.1738241 L56.3415233,42.1738241 L56.3415233,17.204499 L52.6855037,17.204499 L52.6855037,11.3026585 L64.4152334,11.3026585 L64.4152334,14.4805726 C66.7002457,12.1349693 69.2137592,11 71.955774,11 C74.2407862,11 76.1449631,11.605317 77.8206388,12.7402863 C79.4963145,13.8752556 80.7149877,15.4642127 81.5528256,17.5071575 C82.5429975,19.5501022 83,21.8200409 83,24.3169734 Z M69.6707617,30.9754601 C71.2702703,30.9754601 72.4889435,30.3701431 73.3267813,29.2351738 C74.1646192,28.0245399 74.6216216,26.3599182 74.6216216,24.2413088 C74.6216216,22.198364 74.1646192,20.5337423 73.3267813,19.398773 C72.4889435,18.2638037 71.1941032,17.6584867 69.5945946,17.6584867 C68.0712531,17.6584867 66.7764128,18.2638037 65.8624079,19.4744376 C64.9484029,20.6850716 64.4914005,22.2740286 64.4914005,24.3169734 C64.4914005,26.208589 64.9484029,27.797546 65.9385749,29.0838446 C66.8525799,30.2944785 68.1474201,30.9754601 69.6707617,30.9754601 Z" id="Shape" fill="#FFFFFF" fill-rule="nonzero"></path></g></g></g></svg> 